<svg width="700" height="400" viewBox="0 0 156.302 67.766" xmlns="http://www.w3.org/2000/svg">
  <text style="line-height:1" x="92.737" y="37.065" font-weight="400" font-size="3.528" font-family="sans-serif" stroke-width="0.265" transform="translate(-3.315 -4.625)">
    <tspan style="-inkscape-font-specification:'Raleway Bold';text-align:end" x="92.737" y="37.065" font-weight="700" font-family="Raleway" text-anchor="end">Hamilton</tspan>
    <tspan style="-inkscape-font-specification:'Raleway Bold';text-align:end" x="92.737" y="40.64" font-weight="700" font-family="Raleway" text-anchor="end">Wellhead</tspan>
  </text>
  <g fill="none" stroke="#7d80da" stroke-width="1.323">
    <path d="M94.58 57.552l.02-23.8c0-1.336-.02-2.658-1.375-4.014L77.382 13.896c-1.322-1.323-2.645-1.323-3.968-1.323h-5.027M91.935 28.448l-1.323 1.323h0" class="path reverse-anim"></path>
  </g>
  <g transform="translate(-3.315 -4.625)">
    <circle cx="97.885" cy="62.215" fill="#fff" stroke="#000" stroke-width="0.688" stroke-linecap="round" r="2.293"></circle>
    <text style="line-height:1.25" x="97.963" y="68.781" font-weight="400" font-size="3.528" font-family="sans-serif" stroke-width="0.265">
      <tspan style="-inkscape-font-specification:'Raleway Bold';text-align:center" x="97.963" y="68.781" font-weight="700" font-family="Raleway" text-anchor="middle">Hamilton</tspan>
    </text>
  </g>
  <text style="line-height:1" x="121.202" y="21.175" font-weight="400" font-size="3.528" font-family="sans-serif" stroke-width="0.265" transform="translate(-3.315 -4.625)">
    <tspan style="-inkscape-font-specification:'Raleway Bold';text-align:end" x="121.202" y="21.175" font-weight="700" font-family="Raleway" text-anchor="end">Hamilton North</tspan>
    <tspan style="-inkscape-font-specification:'Raleway Bold';text-align:end" x="121.202" y="24.749" font-weight="700" font-family="Raleway" text-anchor="end">Wellhead</tspan>
  </text>
  <g fill="none" stroke="#f0386b" stroke-width="1.323">
    <path d="M68.122 11.25h48.948c1.33-.006 2.653-.006 3.976 1.317s1.323 2.646 1.323 3.969l-.007 41.016M117.07 11.25v1.852" class="path"></path>
  </g>
  <g transform="translate(-3.315 -4.625)">
    <circle cx="125.643" cy="62.216" fill="#fff" stroke="#000" stroke-width="0.688" stroke-linecap="round" r="2.293"></circle>
    <text style="line-height:1" x="125.71" y="68.781" font-weight="400" font-size="3.528" font-family="sans-serif" stroke-width="0.265">
      <tspan style="-inkscape-font-specification:'Raleway Bold';text-align:center" x="125.71" y="68.781" font-weight="700" font-family="Raleway" text-anchor="middle">Hamilton</tspan>
      <tspan style="-inkscape-font-specification:'Raleway Bold';text-align:center" x="125.71" y="72.356" font-weight="700" font-family="Raleway" text-anchor="middle">North</tspan>
    </text>
  </g>
  <g>
    <text style="line-height:1" x="148.999" y="10.698" font-weight="400" font-size="3.528" font-family="sans-serif" stroke-width="0.265" transform="translate(-3.315 -4.625)">
      <tspan style="-inkscape-font-specification:'Raleway Bold';text-align:end" x="148.999" y="10.698" font-weight="700" font-family="Raleway" text-anchor="end">Lennox</tspan>
      <tspan style="-inkscape-font-specification:'Raleway Bold';text-align:end" x="148.999" y="14.273" font-weight="700" font-family="Raleway" text-anchor="end">Wellhead</tspan>
    </text>
    <g fill="none" stroke="#6b2d5c" stroke-width="1.323">
      <path d="M150.143 57.552V5.958c.005-1.32 0-2.646-1.323-3.969-1.389-1.388-2.646-1.323-3.969-1.323 0 0-55.932-.007-56.884-.004-1.324.004-2.647.004-4.002 1.36l-6.583 6.582c-1.322 1.323-2.645 1.323-3.968 1.323h-5.292M144.851.666V2.52" class="path reverse-anim"></path>
    </g>
    <g transform="translate(-3.315 -4.625)">
      <circle cx="153.466" cy="62.216" fill="#fff" stroke="#000" stroke-width="0.688" stroke-linecap="round" r="2.293"></circle>
      <text style="line-height:1" x="153.48" y="68.781" font-weight="400" font-size="3.528" font-family="sans-serif" stroke-width="0.265">
        <tspan style="-inkscape-font-specification:'Raleway Bold';text-align:center" x="153.48" y="68.781" font-weight="700" font-family="Raleway" text-anchor="middle">Lennox</tspan>
      </text>
    </g>
  </g>
  <g>
    <path d="M12.56 19.187v-4.463c0-3.474 2.645-3.474 3.807-3.474h51.755" fill="none" stroke="#000" stroke-width="1.323" class="path"></path>
    <path d="M.653 15.219l15.875 5.291v6.615L.653 32.416z" fill="none" stroke="#000" stroke-width="1.307"></path>
    <g transform="translate(-3.315 -4.625)">
      <circle cx="23.843" cy="15.826" fill="#fffffb" stroke="#000" stroke-width="0.688" stroke-linecap="round" r="2.293"></circle>
      <text style="line-height:1.25" x="23.768" y="11.923" font-weight="400" font-size="3.528" font-family="sans-serif" stroke-width="0.265">
        <tspan style="-inkscape-font-specification:'Raleway Bold';text-align:center" x="23.768" y="11.923" font-weight="700" font-family="Raleway" text-anchor="middle">Compressor</tspan>
      </text>
    </g>
    <g transform="translate(-3.315 -4.625)">
      <circle cx="71.406" cy="15.913" fill="#fff" stroke="#000" stroke-width="0.688" stroke-linecap="round" r="2.293"></circle>
      <text style="line-height:1" x="71.328" y="9.249" font-weight="400" font-size="3.528" font-family="sans-serif" stroke-width="0.265">
        <tspan style="-inkscape-font-specification:'Raleway Bold';text-align:center" x="71.328" y="9.249" font-weight="700" font-family="Raleway" text-anchor="middle">Douglas</tspan>
        <tspan style="-inkscape-font-specification:'Raleway Bold';text-align:center" x="71.328" y="12.823" font-weight="700" font-family="Raleway" text-anchor="middle">Manifold</tspan>
      </text>
    </g>
  </g>
</svg>